<?xml version="1.0" encoding="utf-8"?>
<!-- Generator: Adobe Illustrator 17.0.0, SVG Export Plug-In . SVG Version: 6.00 Build 0)  -->
<!DOCTYPE svg PUBLIC "-//W3C//DTD SVG 1.1//EN" "http://www.w3.org/Graphics/SVG/1.1/DTD/svg11.dtd">
<svg version="1.1" id="Layer_1" xmlns="http://www.w3.org/2000/svg" xmlns:xlink="http://www.w3.org/1999/xlink" x="0px" y="0px"
	 width="100px" height="100px" viewBox="0 0 100 100" enable-background="new 0 0 100 100" xml:space="preserve">
<g>
	<path fill="#B6D1F1" d="M86.889,19.764L57.741,2.935c-4.79-2.766-10.692-2.766-15.482,0L13.111,19.764
		C8.321,22.529,5.37,27.64,5.37,33.172v33.657c0,5.531,2.951,10.642,7.741,13.408l29.148,16.828
		c2.395,1.383,5.068,2.074,7.741,2.074s5.346-0.692,7.741-2.074l29.148-16.828c4.79-2.766,7.741-7.877,7.741-13.408V33.172
		C94.63,27.64,91.679,22.529,86.889,19.764z"/>
	<path fill="#116CD4" d="M77.147,27.749l-21.45-12.384c-3.525-2.035-7.868-2.035-11.394,0l-21.45,12.384
		c-3.525,2.035-5.697,5.797-5.697,9.867v24.769c0,4.07,2.172,7.832,5.697,9.867l21.45,12.384c1.763,1.018,3.73,1.527,5.697,1.527
		s3.934-0.509,5.697-1.527l21.45-12.384c3.525-2.035,5.697-5.797,5.697-9.867V37.616C82.844,33.545,80.672,29.784,77.147,27.749z"/>
	<path fill="#FFFFFF" d="M41.695,66.661c-1.286,0-2.563-0.509-3.509-1.499l-6.037-6.313c-1.852-1.937-1.784-5.01,0.153-6.862
		c1.937-1.853,5.01-1.784,6.862,0.153l3.101,3.242l22.8-16.638c2.166-1.58,5.201-1.106,6.781,1.06
		c1.58,2.165,1.106,5.201-1.06,6.781L44.554,65.728C43.696,66.354,42.693,66.661,41.695,66.661z"/>
</g>
</svg>
